<?xml version="1.0" encoding="utf-8"?>
<!-- Generator: Adobe Illustrator 19.0.0, SVG Export Plug-In . SVG Version: 6.00 Build 0)  -->
<svg version="1.1" id="Layer_2" xmlns="http://www.w3.org/2000/svg" xmlns:xlink="http://www.w3.org/1999/xlink" x="0px" y="0px"
	 viewBox="-909 226 100 100" style="enable-background:new -909 226 100 100;fill:rgb(200,200,200);" xml:space="preserve">
<path d="M-870.5,315.2l20-20l0,0l32-32.1c1-1,1-2.6,0-3.5l-27.2-27.2c-1-1-2.6-1-3.5,0l-28.2,28.3l-24.2,24.2
	c-6.8,6.8-6.8,17.8,0,24.5l6.2,6.1c3.3,3.3,7.6,5.1,12.3,5.1c0.4,0,0.7,0,1.1-0.1v0h68c1.5,0,2.7-1.2,2.7-2.7l0,0
	c0-1.5-1.2-2.7-2.7-2.7H-870.5z M-847.5,238.3l23.1,23.1l-26.2,26.2l-23.1-23.1L-847.5,238.3z M-891.7,311.7l-6.2-6.1
	c-4.7-4.7-4.7-12.3,0-16.9l20.4-20.4l23.1,23.1l-20.3,20.3c-2.3,2.3-5.2,3.5-8.5,3.5C-886.4,315.2-889.4,314-891.7,311.7z"/>
</svg>
