<?xml version="1.0" standalone="no"?>
<!DOCTYPE svg PUBLIC "-//W3C//DTD SVG 20010904//EN"
 "http://www.w3.org/TR/2001/REC-SVG-20010904/DTD/svg10.dtd">
<svg version="1.0" xmlns="http://www.w3.org/2000/svg"
 width="1416.000000pt" height="672.000000pt" viewBox="0 0 1416.000000 672.000000"
 preserveAspectRatio="xMidYMid meet">

<g transform="translate(0.000000,672.000000) scale(0.100000,-0.100000)"
fill="#000000" stroke="none">
<path d="M3900 4470 l0 -320 930 0 930 0 0 320 0 320 -930 0 -930 0 0 -320z"/>
<path d="M4600 2960 l0 -1130 1845 0 1845 0 0 1130 0 1130 -1845 0 -1845 0 0
-1130z m3590 0 l0 -1030 -1745 0 -1745 0 0 1030 0 1030 1745 0 1745 0 0 -1030z"/>
<path d="M3920 1430 l0 -320 930 0 930 0 0 320 0 320 -930 0 -930 0 0 -320z"/>
</g>
</svg>
