<!--?xml version="1.0" encoding="utf-8"?-->
<!-- Generator: Adobe Illustrator 15.1.0, SVG Export Plug-In . SVG Version: 6.00 Build 0)  -->

<svg version="1.1" id="_x32_" xmlns="http://www.w3.org/2000/svg" xmlns:xlink="http://www.w3.org/1999/xlink" x="0px" y="0px" width="512px" height="512px" viewBox="0 0 512 512" style="width: 64px; height: 64px; opacity: 1;" xml:space="preserve">
<style type="text/css">

	.st0{fill:#4B4B4B;}

</style>
<g>
	<path class="st0" d="M309.344,34.167c5.406,5.406,5.406,14.188,0,19.594L87,276.105c-5.406,5.406-14.188,5.406-19.594,0
		L4.063,212.746c-5.406-5.406-5.406-14.188,0-19.594l148.75-148.75c1.813-1.828,4.125-3.109,6.656-3.688l119.344-27.844
		c4.656-1.078,9.531,0.313,12.938,3.703L309.344,34.167z" style="fill: rgb(200,200, 200);"></path>
	<path class="st0" d="M507.938,432.293c5.406,5.422,5.406,14.188,0,19.594l-43.531,43.547c-5.406,5.406-14.188,5.406-19.594,0
		l-248.25-248.25c-5.438-5.406-5.438-14.188,0-19.594l43.531-43.547c5.406-5.406,14.188-5.406,19.594,0L507.938,432.293z" style="fill: rgb(200, 200, 200);"></path>
</g>
</svg>
